<svg version="1.1" xmlns="http://www.w3.org/2000/svg" xmlns:xlink="http://www.w3.org/1999/xlink" width="48px" height="48px" viewBox="0,0,255.98959,255.98959">
  <g fill="#ffffff" fill-rule="nonzero" stroke="none" stroke-width="1" stroke-linecap="butt" stroke-linejoin="miter" stroke-miterlimit="10" stroke-dasharray="" stroke-dashoffset="0" font-family="none" font-weight="none" font-size="none" text-anchor="none" style="mix-blend-mode: normal">
    <g transform="scale(5.33333,5.33333)">
      <path d="M18,4c-5.514,0 -10,4.486 -10,10c0,5.514 4.486,10 10,10c2.252,0 4.326,-0.75853 6,-2.01953v-4.39258c-1.225,2.04 -3.452,3.41211 -6,3.41211c-3.859,0 -7,-3.141 -7,-7c0,-3.859 3.141,-7 7,-7c2.548,0 4.775,1.37211 6,3.41211v-1.91211c0,-0.768 0.14072,-1.5025 0.38672,-2.1875c-1.734,-1.443 -3.95972,-2.3125 -6.38672,-2.3125zM30.5,4c-2.4675,0 -4.5,2.0325 -4.5,4.5v14c0.00012,0.55314 0.30461,1.06133 0.7923,1.32233c0.48769,0.261 1.07943,0.23245 1.53973,-0.07428l5.62305,-3.74805h7.54492c2.4675,0 4.5,-2.0325 4.5,-4.5v-7c0,-2.4675 -2.0325,-4.5 -4.5,-4.5zM30.5,7h11c0.8465,0 1.5,0.6535 1.5,1.5v7c0,0.8465 -0.6535,1.5 -1.5,1.5h-8c-0.29613,0.00002 -0.58563,0.08769 -0.83203,0.25195l-3.66797,2.44531v-11.19727c0,-0.8465 0.6535,-1.5 1.5,-1.5zM6.5,28c-2.481,0 -4.5,2.019 -4.5,4.5v1.5c0,5.607 7.028,10 16,10c8.972,0 16,-4.393 16,-10v-1.5c0,-2.481 -2.019,-4.5 -4.5,-4.5zM6.5,31h23c0.827,0 1.5,0.673 1.5,1.5v1.5c0,3.794 -5.953,7 -13,7c-7.047,0 -13,-3.206 -13,-7v-1.5c0,-0.827 0.673,-1.5 1.5,-1.5z"/>
    </g>
  </g>
</svg>
