<svg version="1.1" xmlns="http://www.w3.org/2000/svg" xmlns:xlink="http://www.w3.org/1999/xlink" width="64px" height="64px" viewBox="0,0,255.98959,255.98959">
  <g fill="#ffffff" fill-rule="nonzero" stroke="none" stroke-width="1" stroke-linecap="butt" stroke-linejoin="miter" stroke-miterlimit="10" stroke-dasharray="" stroke-dashoffset="0" font-family="none" font-weight="none" font-size="none" text-anchor="none" style="mix-blend-mode: normal">
    <g transform="scale(4,4)">
      <path d="M19.32422,14c-10.15,0 -11.32422,12.36983 -11.32422,21.67383c0,12.668 4.80589,15.32617 8.83789,15.32617c3.535,0 5.34255,-3.31523 6.93555,-6.24023c1.68,-3.082 2.928,-5.10352 4.875,-5.10352h6.70312c1.947,0 3.19305,2.02152 4.87305,5.10352c1.594,2.925 3.4025,6.24023 6.9375,6.24023c4.032,0 8.83789,-2.65817 8.83789,-15.32617c0,-9.304 -1.17322,-21.67383 -11.32422,-21.67383c-3.523,0 -8.34511,1.552 -9.66211,2h-6.0293c-1.317,-0.448 -6.13716,-2 -9.66016,-2zM19.32422,18c3.334,0 8.59934,1.86481 8.65234,1.88281c0.216,0.077 0.44288,0.11719 0.67188,0.11719h6.70312c0.229,0 0.45783,-0.04019 0.67383,-0.11719c0.052,-0.018 5.31639,-1.88281 8.65039,-1.88281c3.41,0 7.32422,2.00983 7.32422,17.67383c0,5.167 -0.83889,11.32617 -4.83789,11.32617c-1.16,0 -2.31178,-2.11225 -3.42578,-4.15625c-1.745,-3.202 -3.91577,-7.1875 -8.38477,-7.1875h-6.70312c-4.468,0 -6.63977,3.98645 -8.38477,7.18945c-1.113,2.043 -2.26578,4.1543 -3.42578,4.1543c-3.999,0 -4.83789,-6.15917 -4.83789,-11.32617c0,-15.664 3.91422,-17.67383 7.32422,-17.67383zM43,22c-1.105,0 -2,0.895 -2,2c0,1.105 0.895,2 2,2c1.105,0 2,-0.895 2,-2c0,-1.105 -0.895,-2 -2,-2zM20,23c-0.552,0 -1,0.448 -1,1v2h-2c-0.552,0 -1,0.448 -1,1v2c0,0.552 0.448,1 1,1h2v2c0,0.552 0.448,1 1,1h2c0.552,0 1,-0.448 1,-1v-2h2c0.552,0 1,-0.448 1,-1v-2c0,-0.552 -0.448,-1 -1,-1h-2v-2c0,-0.552 -0.448,-1 -1,-1zM39,26c-1.105,0 -2,0.895 -2,2c0,1.105 0.895,2 2,2c1.105,0 2,-0.895 2,-2c0,-1.105 -0.895,-2 -2,-2zM47,26c-1.105,0 -2,0.895 -2,2c0,1.105 0.895,2 2,2c1.105,0 2,-0.895 2,-2c0,-1.105 -0.895,-2 -2,-2zM43,30c-1.105,0 -2,0.895 -2,2c0,1.105 0.895,2 2,2c1.105,0 2,-0.895 2,-2c0,-1.105 -0.895,-2 -2,-2z"
      stroke="#fff" stroke-width="1" />
    </g>
  </g>
</svg>
