<svg version="1.1" xmlns="http://www.w3.org/2000/svg" xmlns:xlink="http://www.w3.org/1999/xlink" width="24px" height="24px" viewBox="0,0,255.98959,255.98959">
  <g fill="#ffffff" fill-rule="nonzero" stroke="none" stroke-width="1" stroke-linecap="butt" stroke-linejoin="miter" stroke-miterlimit="10" stroke-dasharray="" stroke-dashoffset="0" font-family="none" font-weight="none" font-size="none" text-anchor="none" style="mix-blend-mode: normal">
    <g transform="scale(10.66667,10.66667)">
      <path d="M17,2c-1.10457,0 -2,0.89543 -2,2c0.00126,0.71327 0.38229,1.37188 1,1.72852v1.27148h-3v-2l0.00195,-1.44531c0.0001,-0.35658 -0.18966,-0.68623 -0.49805,-0.86523c-0.71673,-0.41618 -1.51537,-0.63983 -2.32031,-0.67187c-0.26831,-0.01068 -0.538,-0.00087 -0.80469,0.03125c-1.06676,0.1285 -2.09747,0.59943 -2.91406,1.41602c-0.25376,0.25376 -0.45794,0.53123 -0.63281,0.82031c-0.00075,0.00123 -0.00121,0.00267 -0.00195,0.00391c-0.0625,0.0629 -0.11636,0.13384 -0.16016,0.21094c-0.60827,1.0531 -0.77458,2.23726 -0.58008,3.35352c-1.81996,1.02665 -3.08984,2.91382 -3.08984,5.14648c0,1.81982 0.88649,3.38804 2.16602,4.48438c0.47486,2.54777 2.65147,4.51563 5.33398,4.51563c1.12752,0 2.18384,-0.34497 3.05664,-0.92969c0.27687,-0.18553 0.44312,-0.4968 0.44336,-0.83008v-1.24023v-2h3v1.26953c-0.61831,0.35698 -0.99944,1.0165 -1,1.73047c0,1.10457 0.89543,2 2,2c1.10457,0 2,-0.89543 2,-2c-0.00126,-0.71327 -0.38229,-1.37188 -1,-1.72852v-2.27148c-0.00006,-0.55226 -0.44774,-0.99994 -1,-1h-4v-2h6.27148c0.35663,0.61771 1.01525,0.99874 1.72852,1c1.10457,0 2,-0.89543 2,-2c0,-1.10457 -0.89543,-2 -2,-2c-0.71397,0.00056 -1.37349,0.38169 -1.73047,1h-6.26953v-2h4c0.55226,-0.00006 0.99994,-0.44774 1,-1v-2.26953c0.61831,-0.35698 0.99944,-1.0165 1,-1.73047c0,-1.10457 -0.89543,-2 -2,-2zM9.97656,4.02539c0.34671,0.0341 0.68656,0.16455 1.02344,0.28906v0.68555v2.83203c-0.01785,0.10799 -0.01785,0.21818 0,0.32617v1.73633c-0.00388,0.03568 -0.00583,0.07154 -0.00586,0.10742c0.0013,0.87808 -0.55736,1.6115 -1.33008,1.88477c-0.52087,0.18401 -0.794,0.75537 -0.61012,1.27629c0.18388,0.52091 0.75518,0.79419 1.27613,0.61043c0.23543,-0.08326 0.45726,-0.19447 0.66992,-0.31836v2.37695c-0.01785,0.10799 -0.01785,0.21818 0,0.32617v2.8418v0.54492c-0.46567,0.23077 -0.94237,0.45508 -1.5,0.45508c-1.8036,0 -3.25036,-1.34778 -3.45508,-3.0957c-0.03213,-0.27538 -0.17713,-0.52507 -0.40039,-0.68945c-0.9964,-0.73241 -1.64453,-1.88774 -1.64453,-3.21484c0,-1.39201 0.71506,-2.59146 1.78906,-3.30469c0.13657,0.21393 0.28886,0.41842 0.45898,0.61133c0.23338,0.27824 0.59925,0.4081 0.95583,0.33926c0.35657,-0.06884 0.64781,-0.32557 0.76084,-0.67069c0.11303,-0.34512 0.0301,-0.72439 -0.21666,-0.99083c-0.23363,-0.26492 -0.40873,-0.56858 -0.53516,-0.89062c-0.00758,-0.03168 -0.01671,-0.06296 -0.02734,-0.09375c-0.23435,-0.66258 -0.23666,-1.38546 0.00195,-2.04102c0.01631,-0.0448 0.04004,-0.08672 0.05859,-0.13086c0.04246,-0.09915 0.08653,-0.19861 0.14063,-0.29492c0.13044,-0.23311 0.29268,-0.45479 0.49219,-0.6543c0.49441,-0.49441 1.1103,-0.77656 1.74805,-0.85156c0.11701,-0.01376 0.23404,-0.01332 0.34961,-0.00195z"/>
    </g>
  </g>
</svg>
