<svg version="1.1" xmlns="http://www.w3.org/2000/svg" xmlns:xlink="http://www.w3.org/1999/xlink" width="48px" height="48px" viewBox="0,0,255.98959,255.98959">
  <g fill="#ffffff" fill-rule="nonzero" stroke="none" stroke-width="1" stroke-linecap="butt" stroke-linejoin="miter" stroke-miterlimit="10" stroke-dasharray="" stroke-dashoffset="0" font-family="none" font-weight="none" font-size="none" text-anchor="none" style="mix-blend-mode: normal">
    <g transform="scale(5.33333,5.33333)">
      <path d="M9.5,6c-1.91495,0 -3.5,1.58505 -3.5,3.5v29c0,1.91495 1.58505,3.5 3.5,3.5h20.60547c0.54095,0.00765 1.04412,-0.27656 1.31683,-0.74381c0.27271,-0.46725 0.27271,-1.04514 0,-1.51238c-0.27271,-0.46725 -0.77588,-0.75146 -1.31683,-0.74381h-20.60547c-0.29505,0 -0.5,-0.20495 -0.5,-0.5v-29c0,-0.29505 0.20495,-0.5 0.5,-0.5h1.64844c0.54095,0.00765 1.04412,-0.27656 1.31683,-0.74381c0.27271,-0.46725 0.27271,-1.04514 0,-1.51238c-0.27271,-0.46725 -0.77588,-0.75146 -1.31683,-0.74381zM18.23438,6c-0.54095,-0.00765 -1.04412,0.27656 -1.31683,0.74381c-0.27271,0.46725 -0.27271,1.04514 0,1.51238c0.27271,0.46725 0.77588,0.75146 1.31683,0.74381h20.26563c0.29505,0 0.5,0.20495 0.5,0.5v29c0,0.29505 -0.20495,0.5 -0.5,0.5h-2.64844c-0.54095,-0.00765 -1.04412,0.27656 -1.31683,0.74381c-0.27271,0.46725 -0.27271,1.04514 0,1.51238c0.27271,0.46725 0.77588,0.75146 1.31683,0.74381h2.64844c1.91495,0 3.5,-1.58505 3.5,-3.5v-29c0,-1.91495 -1.58505,-3.5 -3.5,-3.5zM14.5,12c-1.36359,0 -2.5,1.13641 -2.5,2.5v1.04297c-0.00765,0.54095 0.27656,1.04412 0.74381,1.31683c0.46725,0.27271 1.04514,0.27271 1.51238,0c0.46725,-0.27271 0.75146,-0.77588 0.74381,-1.31683v-0.54297h5v7h-5v-1.03125c0.00765,-0.54095 -0.27656,-1.04412 -0.74381,-1.31683c-0.46725,-0.27271 -1.04514,-0.27271 -1.51238,0c-0.46725,0.27271 -0.75146,0.77588 -0.74381,1.31683v1.53125c0,1.36359 1.13641,2.5 2.5,2.5h6c1.36359,0 2.5,-1.13641 2.5,-2.5v-8c0,-1.36359 -1.13641,-2.5 -2.5,-2.5zM27.5,12c-1.36359,0 -2.5,1.13641 -2.5,2.5v8c0,1.36359 1.13641,2.5 2.5,2.5h6c1.36359,0 2.5,-1.13641 2.5,-2.5v-8c0,-1.36359 -1.13641,-2.5 -2.5,-2.5zM28,15h5v7h-5zM14.5,27c-1.36359,0 -2.5,1.13641 -2.5,2.5v4c0,1.36359 1.13641,2.5 2.5,2.5h19c1.36359,0 2.5,-1.13641 2.5,-2.5v-4c0,-1.36359 -1.13641,-2.5 -2.5,-2.5h-1.92578c-0.54095,-0.00765 -1.04412,0.27656 -1.31683,0.74381c-0.27271,0.46725 -0.27271,1.04514 0,1.51238c0.27271,0.46725 0.77588,0.75146 1.31683,0.74381h1.42578v3h-18v-3h9.58594c0.54095,0.00765 1.04412,-0.27656 1.31683,-0.74381c0.27271,-0.46725 0.27271,-1.04514 0,-1.51238c-0.27271,-0.46725 -0.77588,-0.75146 -1.31683,-0.74381z"/>
    </g>
  </g>
</svg>
