<svg xmlns="http://www.w3.org/2000/svg" version="1.1" viewBox="0 350 800 100" height="20" xmlns:xlink="http://www.w3.org/1999/xlink" xmlns:svgjs="http://svgjs.dev/svgjs">
  <defs>
    <linearGradient gradientTransform="rotate(270)" x1="50%" y1="0%" x2="50%" y2="100%" id="sssquiggly-grad">
      <stop stop-color="#38b6ff" stop-opacity="1" offset="0%"></stop>
      <stop stop-color="#ff3131" stop-opacity="1" offset="100%"></stop>
    </linearGradient>
  </defs>
  <g stroke-width="11" stroke="url(#sssquiggly-grad)" fill="none" stroke-linecap="round" transform="matrix(1,0,0,1,-5,341.74428939819336)">
    <path d="M10,10C49.583333333333336,12.708333333333332,118.75,29.666666666666664,200,23C281.25,16.333333333333336,316.66666666666663,-20.75,400,-22C483.33333333333337,-23.25,516.6666666666666,15.541666666666666,600,17C683.3333333333334,18.458333333333332,758.3333333333334,-8.333333333333334,800,-15" transform="matrix(1,0,0,1,0,57)"></path>
    <path d="M10,10C49.583333333333336,12.708333333333332,118.75,29.666666666666664,200,23C281.25,16.333333333333336,316.66666666666663,-20.75,400,-22C483.33333333333337,-23.25,516.6666666666666,15.541666666666666,600,17C683.3333333333334,18.458333333333332,758.3333333333334,-8.333333333333334,800,-15" transform="matrix(1,0,0,1,0,38)"></path>
  </g>
</svg>
