<svg xmlns="http://www.w3.org/2000/svg" width="50" height="50" viewBox="0 0 255.99 255.99">
  <g fill="none" stroke-miterlimit="10" font-family="none" font-weight="none" font-size="none" text-anchor="none" style="mix-blend-mode:normal">
    <path d="M72.144 114.821c0 3.184.341 5.76.939 7.654.682 1.893 1.53 3.957 2.725 6.192.427.688.597 1.376.597 1.978 0 .859-.512 1.718-1.616 2.582l-5.365 3.61a4.05 4.05 0 0 1-2.213.774c-.854 0-1.702-.432-2.555-1.206a26.7 26.7 0 0 1-3.067-4.042c-.853-1.462-1.701-3.094-2.64-5.072q-9.962 11.866-25.034 11.866c-7.152 0-12.859-2.064-17.03-6.192s-6.298-9.632-6.298-16.512c0-7.306 2.554-13.242 7.749-17.712s12.09-6.71 20.859-6.71c2.896 0 5.877.257 9.024.689s6.384 1.12 9.792 1.893v-6.277c0-6.533-1.36-11.093-4-13.76-2.726-2.667-7.323-3.957-13.878-3.957a38.4 38.4 0 0 0-9.194 1.12 67 67 0 0 0-9.195 2.922 27 27 0 0 1-2.981 1.12 5.3 5.3 0 0 1-1.36.256c-1.195 0-1.787-.858-1.787-2.666v-4.214c0-1.376.17-2.405.597-3.008s1.195-1.205 2.384-1.808q4.47-2.32 10.731-3.872a51.2 51.2 0 0 1 13.28-1.632c10.133 0 17.541 2.32 22.31 6.966 4.682 4.645 7.066 11.696 7.066 21.152v27.86zm-34.57 13.067c2.81 0 5.706-.517 8.767-1.547 3.067-1.03 5.792-2.922 8.091-5.504 1.36-1.632 2.384-3.44 2.896-5.504s.853-4.56.853-7.482v-3.611a70 70 0 0 0-7.834-1.461 64 64 0 0 0-8.006-.518c-5.706 0-9.877 1.12-12.688 3.44s-4.17 5.59-4.17 9.888c0 4.043 1.024 7.05 3.152 9.115 2.042 2.155 5.024 3.184 8.938 3.184m68.374 9.29c-1.531 0-2.555-.255-3.238-.858-.682-.517-1.274-1.717-1.786-3.355L80.912 66.496c-.512-1.717-.768-2.837-.768-3.44 0-1.376.683-2.15 2.043-2.15h8.346c1.616 0 2.726.257 3.323.86.683.517 1.19 1.717 1.701 3.354l14.304 56.928 13.28-56.928c.427-1.717.939-2.837 1.616-3.355.683-.517 1.872-.858 3.408-.858h6.81c1.617 0 2.726.256 3.409.858.683.518 1.275 1.718 1.616 3.355l13.45 57.616 14.731-57.616c.512-1.717 1.11-2.837 1.702-3.355.682-.517 1.786-.858 3.322-.858h7.92c1.36 0 2.128.688 2.128 2.149 0 .432-.085.859-.17 1.376a12.3 12.3 0 0 1-.598 2.15l-20.517 66.469q-.768 2.576-1.787 3.354c-.677.518-1.786.859-3.237.859h-7.323c-1.616 0-2.725-.256-3.408-.859s-1.274-1.717-1.616-3.44L131.403 77.5l-13.11 55.38c-.426 1.718-.938 2.838-1.616 3.44-.682.604-1.872.86-3.408.86zm109.408 2.32c-4.427 0-8.854-.517-13.11-1.546s-7.578-2.15-9.792-3.44c-1.36-.773-2.298-1.632-2.64-2.405a5.9 5.9 0 0 1-.512-2.406v-4.384c0-1.808.683-2.666 1.958-2.666q.768 0 1.53.256c.512.17 1.275.517 2.128.858a46 46 0 0 0 9.366 3.008 50.7 50.7 0 0 0 10.133 1.03c5.365 0 9.536-.944 12.432-2.838s4.427-4.645 4.427-8.17c0-2.406-.768-4.384-2.3-6.022-1.53-1.632-4.426-3.093-8.596-4.47l-12.347-3.871c-6.213-1.979-10.81-4.901-13.621-8.773-2.811-3.782-4.256-7.995-4.256-12.47q0-5.418 2.298-9.546a21.9 21.9 0 0 1 6.128-7.051 26.7 26.7 0 0 1 8.854-4.47 37.3 37.3 0 0 1 10.73-1.455c1.872 0 3.83.085 5.707.341 1.957.256 3.744.603 5.536.944 1.701.432 3.323.859 4.853 1.376q2.294.773 3.579 1.547c1.195.688 2.043 1.376 2.555 2.149q.768 1.03.768 2.837v4.043c0 1.808-.683 2.752-1.958 2.752-.682 0-1.786-.341-3.237-1.03q-7.28-3.354-16.347-3.354c-4.853 0-8.682.773-11.322 2.405s-4 4.128-4 7.654c0 2.405.853 4.469 2.554 6.106 1.702 1.632 4.854 3.27 9.366 4.73l12.09 3.873c6.128 1.979 10.56 4.73 13.195 8.256s3.915 7.568 3.915 12.037c0 3.696-.768 7.05-2.214 9.974a22.9 22.9 0 0 1-6.213 7.568c-2.64 2.149-5.792 3.696-9.45 4.816a40 40 0 0 1-12.187 1.808" fill="#fff"/>
    <path d="M231.445 181.29c-28.01 20.897-68.71 31.99-103.706 31.99-49.04 0-93.232-18.315-126.608-48.757-2.64-2.406-.256-5.675 2.896-3.782 36.101 21.152 80.629 33.968 126.693 33.968 31.077 0 65.221-6.533 96.635-19.952 4.688-2.15 8.688 3.094 4.09 6.534m11.664-13.414c-3.578-4.645-23.67-2.234-32.778-1.12-2.726.342-3.152-2.064-.683-3.872 16.005-11.35 42.315-8.085 45.381-4.298 3.067 3.872-.853 30.442-15.834 43.168-2.3 1.978-4.512.944-3.494-1.632 3.408-8.512 10.987-27.691 7.408-32.246" fill="#f90"/>
  </g>
</svg>
