<svg version="1.1" id="katman_1" xmlns="http://www.w3.org/2000/svg" x="0" y="0" height="100" viewBox="0 0 2999.2 1751.6" xml:space="preserve">
  <style>
    .st0{fill:#005385}
  </style>
  <path class="st0" d="M676 917.9c1.5-26.7 14.6-50.3 34.3-67 19.4-16.4 45.5-26.4 73.9-26.4 28.5 0 54.5 10 73.9 26.4 19.7 16.7 32.8 40.3 34.4 67 1.5 27.5-9.5 53-28.9 71.9-19.7 19.2-47.9 31.3-79.4 31.3s-59.6-12.1-79.4-31.3c-19.2-18.9-30.3-44.4-28.8-71.9"/>
  <path d="M503.6 972c.2 10.4 3.5 30.8 8.5 46.7 10.5 33.6 28.4 64.7 53.2 92.2 25.5 28.2 56.9 50.8 93.1 66.8 38.1 16.9 79.4 25.5 122.3 25.4s84.1-8.8 122.3-25.8c36.2-16.2 67.6-38.9 93.1-67.2 24.8-27.5 42.6-58.7 53.2-92.3 5.3-16.7 8.6-34 10-51.5 1.3-17.1.8-34.2-1.6-51.2-4.7-33.2-16.2-64.4-33.9-92.9-16.2-26.1-37.1-49-61.9-68.3L711.3 561.5c-.2-.2-.4-.4-.6-.5-16.5-12.6-44.1-12.6-62.2.1-18.3 12.8-20.4 33.9-4.1 47.3h-.1l104.5 85-318.5.3h-.4c-26.3 0-51.6 17.3-56.6 39.1-5.1 22.2 12.8 40.7 40.1 40.8v.1l161.4-.3-288.2 221.2c-.4.3-.7.5-1.1.8-27.2 20.8-35.9 55.4-18.8 77.3 17.4 22.3 54.3 22.3 81.8.1l157.2-128.7c0 .1-2.3 17.5-2.1 27.9m404 58.1c-32.4 33-77.7 51.7-126.8 51.8s-94.5-18.5-126.9-51.4c-15.8-16.1-27.5-34.5-34.7-54.2-7-19.4-9.8-40-8-60.5 1.7-20 7.6-39.5 17.4-57 9.5-17.2 22.5-32.7 38.6-45.8 31.5-25.7 71.6-39.6 113.5-39.6 42 0 82 13.7 113.5 39.3 16 13.1 29.1 28.5 38.5 45.7 9.7 17.6 15.7 37 17.4 57 1.8 20.5-.9 41.2-8 60.6-7.1 19.5-18.7 38-34.5 54.1" style="fill:#ff7021"/>
  <path class="st0" d="M2392.6 917.5c2.4-27 23.3-44.1 55.2-44.1s52.8 17.1 55.2 44.1zm107.1 66.6c-8.2 20-27.4 31.9-53.5 31.9-32.7 0-54.8-20.4-55.6-52.7h188v-9.5c0-80.8-47.4-126.3-132.5-126.3-82.6 0-132.5 45.9-132.5 117.8 0 72.3 50.7 118.1 132.5 118.1 49 0 87.1-16.8 110.6-46.4zM1558 917.6c2.5-27 23.3-44.1 55.2-44.1s52.7 17.1 55.2 44.1zm107.1 66.7c-8.2 20-27.4 31.9-53.5 31.9-32.7 0-54.8-20.5-55.6-52.7h188V954c0-80.8-47.4-126.3-132.4-126.3-82.6 0-132.4 45.9-132.4 117.8 0 72.4 50.6 118.1 132.4 118.1 49 0 87.1-16.8 110.6-46.4zm-270.7-205.7h67.9v277.5h-67.9zm366.4 73.7h68.2v16.5c24.2-25.8 53.2-38.8 85.9-38.8 37.7 0 66.2 13 81 35.2 12.3 18.3 13.1 40.4 13.1 69.5v121.4h-68.3V949.5c0-44.2-8.9-64.7-47.7-64.7-39.3 0-63.9 23.4-63.9 62.6v108.7h-68.2zm467.8 96.4c0 38-25.4 62.9-64.6 62.9-39.3 0-64.6-24.1-64.6-62.5 0-38.9 25-63 64.6-63 39.2 0 64.6 24.5 64.6 62.6m0-87.1c-17.2-18.5-42.1-28.6-76.9-28.6-74.8 0-125.9 46.2-125.9 115.3 0 67.8 50.7 115.2 124.7 115.2 34 0 58.9-8.6 78.1-27.8v20.4h68.3V761l-68.3 17.6zm-989.2 24.5c39.6 0 64.6 24.1 64.6 63 0 38.4-25.3 62.5-64.6 62.5s-64.6-24.9-64.6-62.9c0-38.1 25.3-62.6 64.6-62.6m-64.6-107.5-68.3-17.6v295.1h68.3v-20.4c19.2 19.2 44.1 27.8 78.1 27.8 74 0 124.7-47.4 124.7-115.2 0-69.2-51.1-115.3-125.9-115.3-34.8 0-59.7 10.2-76.9 28.6zm1420.7 277.6V852.3h68.3v12.6c20.4-24.6 42.1-36.9 66.6-36.9 4.9 0 11 .8 19.2 1.6v58.1c-6.5-.8-13.9-.8-21.7-.8-39.7 0-64.2 26.2-64.2 70.7v98.5z"/>
</svg>
