<svg version="1.0" id="katman_1" xmlns="http://www.w3.org/2000/svg" x="0" y="0" height="80" viewBox="0 0 1700 1200" xml:space="preserve">
  <style>
    .st5{fill-rule:evenodd;clip-rule:evenodd}
  </style>
  <path d="M368.6 590.1c0-59.6 48.3-108 108-108 59.6 0 108 48.3 108 108s-48.3 108-108 108-108-48.3-108-108" style="fill:#1abcfe"/>
  <path d="M152.7 806c0-59.6 48.3-108 108-108h108v108c0 59.6-48.3 108-108 108s-108-48.3-108-108" style="fill:#0acf83"/>
  <path d="M368.6 266.3v215.9h108c59.6 0 108-48.3 108-108s-48.3-108-108-108h-108z" style="fill:#ff7262"/>
  <path d="M152.7 374.2c0 59.6 48.3 108 108 108h108V266.3h-108c-59.7 0-108 48.3-108 107.9" style="fill:#f24e1e"/>
  <path d="M152.7 590.1c0 59.6 48.3 108 108 108h108V482.2h-108c-59.7 0-108 48.3-108 107.9" style="fill:#a259ff"/>
  <path d="M756.8 483.5v229.1l29.5.1V603.6h71v-28.9h-71.1v-62.5h92.6v-28.8h-122zm175 46.6c10.7 0 19.3-8.6 19.3-19.3s-8.6-19.3-19.3-19.3-19.3 8.6-19.3 19.3 8.6 19.3 19.3 19.3m-14.9 28.8v153.9h29.5V558.9z" fill="#fff"/>
  <path class="st5" d="M1055.7 554.4c-39.1 0-66.4 33.1-66.4 72.4s27.3 72.4 66.4 72.4c18 0 32.7-6.8 43.5-18.2v20.5c.3 25.5-20.1 46.5-45.7 46.8h-.5c-9.4 0-18.8-3.6-26.1-8.9l-14.8 25.6c35.1 22.7 81.8 12.6 104.5-22.4 7.9-12.3 12.1-26.6 12.1-41.2V559h-29.5v13.8c-10.8-11.4-25.6-18.2-43.5-18.2zm-37 72.4c0-24.4 18.6-43.6 40.2-43.6s40.1 19.3 40.1 43.6c0 24.4-18.6 43.5-40.1 43.5s-40.2-19-40.2-43.5" fill="#fff"/>
  <path d="M1234.9 583.2c-17.6.3-31.7 14.7-31.6 32.3v97.3h-29.5V558.9h29.5V573c9-11.9 23.1-18.8 38-18.5 20.7 0 36.6 10.2 45.7 25.9 10.3-16 27.9-25.7 46.9-25.9 33.5 0 54.5 27 54.5 60.6v97.7h-29.3v-97.4c.1-17.6-14-32-31.6-32.3-17.6.3-31.7 14.7-31.6 32.3v97.3h-29.5v-97.3c.1-17.5-13.9-31.9-31.5-32.3z" fill="#fff"/>
  <path class="st5" d="M1545.5 576.4c-13.6-14.1-32.3-22.1-51.9-21.9-43.9 0-75 37-75 81.4s31.1 81.4 75 81.4c19.6.1 38.3-7.8 51.9-21.9v17.5h29.4v-154h-29.5v17.5zm-97.5 59.4c0-29.3 22.5-52.6 48.8-52.6 26.1 0 48.8 23.3 48.8 52.6s-22.5 52.5-48.8 52.5c-26.1 0-48.8-23.2-48.8-52.5" fill="#fff"/>
</svg>
