<svg xmlns="http://www.w3.org/2000/svg" width="50" height="50" viewBox="0 0 255.99 255.99">
  <g fill="none" stroke-miterlimit="10" font-family="none" font-weight="none" font-size="none" text-anchor="none" style="mix-blend-mode:normal">
    <path d="M32 53.333A21.333 21.333 0 0 1 53.333 32h149.334A21.333 21.333 0 0 1 224 53.333v149.334A21.333 21.333 0 0 1 202.667 224H53.333A21.333 21.333 0 0 1 32 202.667z" fill="#03A9F4"/>
    <path d="M106.752 102.261H96.075v23.648h10.522q4.374 0 6.774-2.864t2.394-8.336q0-5.68-2.448-9.034a7.84 7.84 0 0 0-6.565-3.414" fill="#020f16"/>
    <path d="M48 48v160h160V48zm76.613 84.208q-6.613 6.459-18.33 6.459H96.075v26.666H80.763V89.5h25.834q11.254 0 17.942 6.98t6.693 18.124q0 11.146-6.619 17.605m49.69 29.584q-5.674 4.587-14.895 4.581-6.203 0-10.939-2.421a18.4 18.4 0 0 1-7.424-6.747 17.4 17.4 0 0 1-2.682-9.322h14.01q.107 3.85 1.798 5.78 1.69 1.926 5.546 1.926 5.936 0 5.936-5.365 0-1.877-1.797-3.461-1.792-1.584-7.99-4.294-9.109-3.696-12.527-7.658-3.414-3.963-3.414-9.846 0-7.397 5.339-12.213 5.344-4.816 14.139-4.816 9.264 0 14.842 4.79t5.574 12.863h-14.742q0-6.874-5.728-6.874-2.341 0-3.856 1.456-1.514 1.46-1.51 4.064 0 1.872 1.67 3.306 1.664 1.435 7.867 4.09 9.013 3.34 12.736 7.425 3.723 4.09 3.723 10.597 0 7.558-5.675 12.139" fill="#020f16"/>
  </g>
</svg>
