<svg xmlns="http://www.w3.org/2000/svg" height="120" viewBox="0 0 652 652" xml:space="preserve">
  <path style="fill:#ca7f0d" d="M216.4 336.2v30.2H207v-79.9h22c8.5 0 15.2 2.1 19.9 6.2 4.7 4.2 7 10 7 17.6s-2.6 13.8-7.8 18.6-12.3 7.2-21.1 7.2h-10.6zm0-41.2v32.8h9.8c6.5 0 11.4-1.5 14.8-4.4s5.1-7.1 5.1-12.5c0-10.5-6.2-15.8-18.7-15.8h-11zm72.9 72.8c-8.4 0-15.2-2.7-20.2-8s-7.5-12.4-7.5-21.2c0-9.6 2.6-17.1 7.9-22.5 5.2-5.4 12.3-8.1 21.2-8.1 8.5 0 15.1 2.6 19.9 7.9 4.8 5.2 7.2 12.5 7.2 21.8 0 9.1-2.6 16.4-7.7 21.9s-12.1 8.2-20.8 8.2m.7-52.1c-5.9 0-10.5 2-13.9 6q-5.1 6-5.1 16.5c0 6.8 1.7 12.1 5.2 16s8.1 5.9 13.9 5.9c5.9 0 10.4-1.9 13.6-5.7s4.8-9.3 4.8-16.3q0-10.65-4.8-16.5c-3.2-3.9-7.8-5.9-13.7-5.9m114.2-6.3-17.1 57.1h-9.5l-11.8-40.8c-.4-1.6-.7-3.3-.9-5.3h-.2c-.1 1.3-.5 3.1-1.2 5.2l-12.8 41h-9.1l-17.3-57.1h9.6l11.8 42.9c.4 1.3.6 3 .8 5.1h.4c.1-1.6.4-3.4 1-5.2l13.1-42.8h8.4l11.8 43c.4 1.4.7 3.1.8 5.1h.4c.1-1.4.4-3.2.9-5.1l11.6-43h9.3zm56.5 30.8h-40.3c.1 6.4 1.9 11.3 5.1 14.7s7.8 5.2 13.5 5.2c6.4 0 12.3-2.1 17.7-6.4v8.6c-5 3.6-11.6 5.5-19.9 5.5-8.1 0-14.4-2.6-19-7.8q-6.9-7.8-6.9-21.9c0-8.9 2.5-16.1 7.5-21.7s11.3-8.4 18.7-8.4c7.5 0 13.2 2.4 17.3 7.2s6.1 11.5 6.1 20.1v4.9zm-9.4-7.8c0-5.3-1.3-9.4-3.8-12.3s-6-4.4-10.4-4.4c-4.3 0-8 1.5-11 4.6s-4.9 7.1-5.6 12.1zm52.9-13.8q-2.4-1.8-6.9-1.8c-3.9 0-7.2 1.8-9.8 5.5q-3.9 5.55-3.9 15v29.1h-9.1v-57.1h9.1v11.8h.2c1.3-4 3.3-7.1 6-9.4 2.7-2.2 5.7-3.4 9-3.4 2.4 0 4.2.3 5.5.8v9.5zm42.5 47.8v-79.9h22.7c6.9 0 12.4 1.7 16.4 5.1s6.1 7.8 6.1 13.2c0 4.5-1.2 8.5-3.7 11.8s-5.8 5.7-10.1 7.1v.2c5.4.6 9.7 2.7 12.9 6.1s4.8 7.9 4.8 13.4c0 6.8-2.5 12.4-7.4 16.6s-11.1 6.4-18.6 6.4zM556 295v25.8h9.6c5.1 0 9.2-1.2 12.1-3.7s4.4-6 4.4-10.4c0-7.8-5.1-11.6-15.3-11.6H556zm0 34.2V358h12.7c5.5 0 9.8-1.3 12.8-3.9s4.5-6.2 4.5-10.7c0-9.4-6.4-14.2-19.3-14.2zm65.4 37.2H612v-79.9h9.4z"/>
  <linearGradient id="a" gradientUnits="userSpaceOnUse" x1="78.181" y1="412.265" x2="148.197" y2="259.216" gradientTransform="matrix(1 0 0 -1 0 652)">
    <stop offset="0" style="stop-color:#e6ad10"/>
    <stop offset="1" style="stop-color:#c87e0e"/>
  </linearGradient>
  <path d="M143.3 246.5v148.9c0 3.7-3 6.8-6.8 6.8H94.2c-3.7 0-6.8-3-6.8-6.8V246.5c0-3.7 3-6.8 6.8-6.8h42.3c3.7.1 6.8 3.1 6.8 6.8" style="fill:url(#a)"/>
  <linearGradient id="b" gradientUnits="userSpaceOnUse" x1="51.363" y1="370.089" x2="110.346" y2="252.123" gradientTransform="matrix(1 0 0 -1 0 652)">
    <stop offset="0" style="stop-color:#f6d751"/>
    <stop offset="1" style="stop-color:#e6ad10"/>
  </linearGradient>
  <path d="M110.3 287.2v115.1H54.4V287.2c0-3.7 3-6.8 6.8-6.8h42.3c3.7 0 6.8 3 6.8 6.8" style="fill:url(#b)"/>
  <linearGradient id="c" gradientUnits="userSpaceOnUse" x1="31.11" y1="334.964" x2="63.588" y2="255.586" gradientTransform="matrix(1 0 0 -1 0 652)">
    <stop offset="0" style="stop-color:#f9e589"/>
    <stop offset="1" style="stop-color:#f6d751"/>
  </linearGradient>
  <path d="M21.4 327.8v67.7c0 3.7 3 6.8 6.8 6.8h49.1v-74.5c0-3.7-3-6.8-6.8-6.8H28.2c-3.7 0-6.8 3-6.8 6.8" style="fill:url(#c)"/>
</svg>
