<svg version="1.0" id="katman_1" xmlns="http://www.w3.org/2000/svg" xmlns:xlink="http://www.w3.org/1999/xlink" x="0" y="0" height="100" viewBox="0 0 338 200" xml:space="preserve">
  <style>
    .st4{fill:#fff}
  </style>
  <defs>
    <path id="SVGID_1_" d="M73.5 85.6 51 72.8v52.6l9-5.2v-14.8l6.8 3.9-.1-10.1-6.7-3.9v-5.9l13.5 7.9z"/>
  </defs>
  <clipPath id="SVGID_2_">
    <use xlink:href="#SVGID_1_" style="overflow:visible"/>
  </clipPath>
  <g style="clip-path:url(#SVGID_2_)">
    <linearGradient id="SVGID_3_" gradientUnits="userSpaceOnUse" x1="24.4" y1="-201.05" x2="79.6" y2="-201.05" gradientTransform="matrix(1 0 0 -1 0 -102)">
      <stop offset="0" style="stop-color:#ff6f00"/>
      <stop offset="1" style="stop-color:#ffa800"/>
    </linearGradient>
    <path d="M24.4 72.6h55.2v52.9H24.4z" style="fill:url(#SVGID_3_)"/>
  </g>
  <defs>
    <path id="SVGID_4_" d="M26.5 85.6 49 72.8v52.6l-9-5.2V89.4l-13.5 7.9z"/>
  </defs>
  <clipPath id="SVGID_5_">
    <use xlink:href="#SVGID_4_" style="overflow:visible"/>
  </clipPath>
  <g style="clip-path:url(#SVGID_5_)">
    <linearGradient id="SVGID_6_" gradientUnits="userSpaceOnUse" x1="24.1" y1="-201.05" x2="79.3" y2="-201.05" gradientTransform="matrix(1 0 0 -1 0 -102)">
      <stop offset="0" style="stop-color:#ff6f00"/>
      <stop offset="1" style="stop-color:#ffa800"/>
    </linearGradient>
    <path d="M24.1 72.6h55.2v52.9H24.1z" style="fill:url(#SVGID_6_)"/>
  </g>
  <path class="st4" d="M114.2 89.1h-10v27.7h-5.6V89.1h-10v-4.5h25.6z"/>
  <path class="st4" d="M120.9 117.2c-3.4 0-6.2-1.1-8.3-3.2s-3.2-5-3.2-8.6v-.7c0-2.2.4-4.4 1.4-6.4.9-1.8 2.2-3.3 3.9-4.4s3.6-1.6 5.6-1.6c3.3 0 5.8 1 7.6 3.1s2.7 5 2.7 8.8v2.2h-15.7c.1 1.8.8 3.4 2 4.7 1.2 1.2 2.7 1.8 4.4 1.7 2.4.1 4.6-1.1 6-3l2.9 2.8c-1 1.4-2.3 2.6-3.8 3.3-1.8 1-3.6 1.4-5.5 1.3m-.6-20.5c-1.4-.1-2.7.5-3.6 1.5-1 1.2-1.6 2.7-1.7 4.3h10.3v-.4c-.1-1.8-.6-3.2-1.4-4.1-1-.8-2.3-1.4-3.6-1.3m19.4-3.9.2 2.8c1.7-2.1 4.3-3.3 7-3.2 5 0 7.5 2.9 7.6 8.6v15.8h-5.4v-15.5c0-1.5-.3-2.6-1-3.4-.7-.7-1.7-1.1-3.2-1.1-2.1-.1-4 1.1-4.9 2.9v17h-5.4v-24zm32.2 17.5c0-.9-.4-1.7-1.2-2.2-1.2-.7-2.6-1.1-3.9-1.3-1.6-.3-3.1-.8-4.6-1.5-2.7-1.3-4-3.2-4-5.6 0-2 1-4 2.6-5.2 1.7-1.4 4-2.1 6.6-2.1q4.35 0 6.9 2.1c1.7 1.3 2.7 3.4 2.6 5.5h-5.4c0-1-.4-1.9-1.2-2.6-.9-.7-1.9-1.1-3.1-1-1 0-2 .2-2.9.8-.7.5-1.1 1.3-1.1 2.2 0 .8.4 1.5 1 1.9.7.5 2.1.9 4.2 1.4 1.7.3 3.4.9 5 1.7 1.1.5 2 1.3 2.7 2.3q.9 1.5.9 3.3c0 2.1-1 4-2.7 5.2-1.8 1.3-4.1 2-7 2-1.8 0-3.6-.3-5.2-1.1-1.4-.6-2.7-1.6-3.6-2.9-.8-1.2-1.3-2.6-1.3-4h5.2c0 1.1.5 2.2 1.4 2.9 1 .7 2.3 1.1 3.5 1 1.4 0 2.5-.3 3.2-.8 1-.4 1.4-1.2 1.4-2m8.1-5.7c0-2.2.4-4.4 1.4-6.3.9-1.8 2.2-3.3 3.9-4.3 1.8-1 3.8-1.6 5.8-1.5 3.2 0 5.9 1 7.9 3.1s3.1 4.8 3.3 8.3v1.3c0 2.2-.4 4.3-1.4 6.3-.8 1.8-2.2 3.3-3.9 4.3-1.8 1-3.8 1.6-5.9 1.5-3.4 0-6.1-1.1-8.1-3.4-2-2.2-3-5.2-3.1-9zm5.3.5c0 2.5.5 4.4 1.5 5.8 1.8 2.3 5.1 2.8 7.5 1 .4-.3.7-.6 1-1 1-1.4 1.5-3.5 1.5-6.2 0-2.4-.5-4.3-1.6-5.8-1.7-2.3-5-2.8-7.4-1.1-.4.3-.8.7-1.1 1-.8 1.4-1.4 3.5-1.4 6.3m33.1-7.3c-.7-.1-1.5-.2-2.2-.2-2.5 0-4.1.9-5 2.8v16.4h-5.4v-24h5.1l.1 2.7c1.3-2.1 3.1-3.1 5.4-3.1.6 0 1.3.1 1.9.3zm22.5 5.3h-13v13.7h-5.6V84.6h20.5v4.5h-14.9v9.6h13zm10.7 13.7h-5.4V84.5h5.4zm3.9-12.2c0-2.2.4-4.4 1.4-6.3.9-1.8 2.2-3.3 3.9-4.3 1.8-1 3.8-1.6 5.8-1.5 3.2 0 5.9 1 7.9 3.1s3.1 4.8 3.3 8.3v1.3c0 2.2-.4 4.3-1.3 6.3-.8 1.8-2.2 3.3-3.9 4.3-1.8 1-3.8 1.6-5.9 1.5-3.4 0-6.1-1.1-8.1-3.4-2-2.2-3.1-5.2-3.1-9zm5.4.5c0 2.5.5 4.4 1.5 5.8s2.6 2.2 4.3 2.1c1.7.1 3.3-.7 4.2-2.1 1-1.4 1.5-3.5 1.5-6.2 0-2.4-.5-4.3-1.6-5.8-1.7-2.3-5-2.8-7.4-1.1-.4.3-.8.7-1.1 1-.9 1.4-1.4 3.5-1.4 6.3m41.2 4.3 3.8-16.5h5.2l-6.5 24h-4.4l-5.1-16.5-5.1 16.5h-4.4l-6.6-24h5.3l3.9 16.4 4.9-16.4h4.1z"/>
</svg>
