<svg fill="#fff" height="32" viewBox="0 0 233 32" xmlns="http://www.w3.org/2000/svg">
  <path d="m204.909 9.6 7.589 7.826V9.599h3.603v12.803h-3.274l-8.266-8.413v8.413h-3.603V9.6zm17.526 7.68v2.268l9.985.001v2.853h-13.661V9.6h13.46v2.851h-9.784v2.103h8.066v2.726zM0 16C0 7.163 7.163 0 16 0s16 7.163 16 16-7.163 16-16 16S0 24.837 0 16m18.523 7.129 1.57 1.766c3.912-1.847 5.139-5.261 5.416-6.591-1.431 1.465-3.013 2.95-4.078 1.922 0 0-.058-5.485-.058-7.735 0-3.026 2.868-5.28 2.868-5.28-1.577.281-3.472.843-5.482 2.816a8 8 0 0 0-.516.567c-.862-.66-1.979-.461-1.979-.461.604.331 1.207 1.297 1.207 2.096v7.855s-1.316 1.157-2.33 1.157a1.43 1.43 0 0 1-1.173-.593 1.6 1.6 0 0 1-.198-.342V10.6c-.3.248-1.313.452-1.313-1.23 0-1.045.754-2.29 2.094-3.054A9.9 9.9 0 0 0 9.578 8.61a9.74 9.74 0 0 0-3.37 7.463s.981-3.063 2.208-3.345a1.186 1.186 0 0 1 1.488 1.187v7.193c0 .729-.47.888-.904.88a3.8 3.8 0 0 1-.867-.164 9.78 9.78 0 0 0 7.738 3.97zm32.612-7.055c0 2.23-1.226 3.676-3.695 3.676s-3.712-1.445-3.712-3.676V9.599h-3.73v6.767c0 3.895 2.67 6.456 7.442 6.456 4.774 0 7.425-2.56 7.425-6.456V9.599h-3.73zm17.75 1.352L61.295 9.6h-3.95v12.802h3.603v-8.413l8.266 8.413h3.273V9.599h-3.602zm21.057-3.456c0-2.927-2.542-4.371-5.816-4.371h-8.98v12.8h3.713v-4.041h3.768L86.01 22.4h4.335l-3.768-4.352c2.011-.585 3.365-1.938 3.365-4.078m-6.09 1.682h-5.011v-3.218h5.011c1.335 0 2.304.366 2.304 1.609s-.969 1.609-2.304 1.609m11.744 1.628h8.065v-2.725h-8.065v-2.103h9.784V9.6H91.92v12.802h13.661v-2.853h-9.985v-2.27zm17.43-7.68-6.62 12.8h3.914l1.207-2.45h7.022l1.207 2.45h3.969l-6.62-12.8zm-.22 7.698 2.232-4.535 2.212 4.535zM128.609 9.6h-3.731v12.8h12.344v-2.998h-8.613zm18.873 7.68h8.064v-2.725h-8.064v-2.103h9.784V9.6h-13.46v12.802h13.661v-2.853h-9.985v-2.27zm23.578.146L163.471 9.6h-3.95v12.802h3.602v-8.413l8.267 8.413h3.273V9.599h-3.603zm17.893.184v1.152c-.896.823-2.14 1.134-3.713 1.134-3.109 0-4.864-1.372-4.864-3.895 0-2.505 1.701-3.877 4.81-3.877 1.719 0 2.871.439 3.968 1.426l2.724-2.012c-1.335-1.243-3.62-2.36-6.784-2.36-5.249 0-8.504 2.488-8.504 6.823 0 4.334 3.255 6.822 8.504 6.822 3.419 0 5.943-1.134 7.315-2.835v-4.992h-7.7v2.614zm9.384-8.01h-3.73v12.8h3.73z" fill-rule="evenodd"/>
</svg>
